<?xml version="1.0" encoding="UTF-8"?>
<svg version="1.1" xmlns="http://www.w3.org/2000/svg" width="512" height="512">
<path d="M0 0 C1.86286442 -0.00322657 3.7257286 -0.0065916 5.58859253 -0.01008606 C9.50389182 -0.01606347 13.41916913 -0.01792823 17.33447266 -0.01733398 C21.26095306 -0.01725393 25.18731378 -0.02399932 29.11376953 -0.0378418 C49.72076328 -0.1093135 70.28268259 0.02586416 90.8671875 1.06640625 C92.06514135 1.12602759 92.06514135 1.12602759 93.2872963 1.18685341 C141.81121058 3.66732561 199.63797497 7.97074705 235.1796875 45.16796875 C244.86100029 56.44345997 250.9241534 69.73891811 254.1796875 84.16796875 C254.40527344 85.16054687 254.63085938 86.153125 254.86328125 87.17578125 C259.71546496 113.87952332 257.0546051 143.99304242 242.1796875 167.16796875 C228.60156816 186.55855859 212.12303141 198.67094166 191.1796875 209.16796875 C193.98855357 212.03010642 196.80197103 214.72428569 199.9296875 217.23046875 C222.50700555 236.92196419 229.83325064 268.68899434 236.44921875 296.50390625 C242.42402231 323.49700628 242.42402231 323.49700628 259.1796875 344.16796875 C263.23396299 346.19510649 268.10088651 345.74561787 272.38671875 344.5546875 C277.05915775 342.64361785 280.71790186 340.03001207 284.6796875 336.91796875 C288.94875248 333.71318048 291.85761994 332.10857511 297.234375 332.62890625 C300.23879806 333.46145722 302.0672758 334.92353132 304.1796875 337.16796875 C309.40343937 347.61547248 303.33836687 365.11318226 299.9296875 375.41796875 C292.7828473 394.30604643 278.67709527 407.83349261 260.65625 416.3046875 C239.60149388 425.53436286 215.47866327 427.25684443 193.9296875 418.91796875 C188.13672666 416.3407551 183.14850863 413.0872699 178.1796875 409.16796875 C177.41914063 408.57242187 176.65859375 407.976875 175.875 407.36328125 C146.95663437 383.24796597 138.3830895 340.43170988 132.42578125 305.35546875 C126.47937761 264.04566833 126.47937761 264.04566833 104.1796875 230.16796875 C100.02438416 227.66678295 95.85674621 226.32000473 91.1796875 225.16796875 C91.2297998 226.24312744 91.27991211 227.31828613 91.33154297 228.42602539 C91.57597499 233.69402001 91.81614603 238.96220432 92.0546875 244.23046875 C92.09915009 245.21227112 92.14361267 246.19407349 92.18942261 247.20562744 C93.07978801 266.98953483 93.8075673 286.77820121 94.48193359 306.57055664 C94.9434266 320.24151092 94.9434266 320.24151092 95.6328125 333.90234375 C95.69758789 334.99514648 95.76236328 336.08794922 95.82910156 337.21386719 C97.29818215 349.5926103 104.73747574 360.35720948 114.1796875 368.16796875 C117.38404201 370.43427005 120.66178268 372.58489936 123.98803711 374.66772461 C130.19656138 378.60263732 130.19656138 378.60263732 132.1796875 382.16796875 C133.0134344 388.62950721 133.0134344 388.62950721 131.1953125 391.984375 C128.78862107 395.06701989 126.97343502 396.53570649 123.1796875 397.16796875 C121.28514215 397.3350038 119.38657316 397.45851042 117.48707581 397.55397034 C116.32552979 397.61424408 115.16398376 397.67451782 113.96723938 397.73661804 C112.69615829 397.79847794 111.42507721 397.86033783 110.11547852 397.92407227 C108.75979982 397.99285678 107.40413816 398.06197747 106.04849243 398.13140869 C102.36373612 398.31902764 98.67874332 398.50154006 94.99367261 398.68286633 C91.9036205 398.8353688 88.81369394 398.99033536 85.72376388 399.14528793 C78.41261876 399.51187422 71.10127589 399.87430965 63.78979492 400.23413086 C56.2974325 400.6029204 48.80542408 400.97834 41.31356484 401.35720307 C34.85140186 401.68376541 28.38904069 402.00618106 21.92651123 402.3254084 C18.08101678 402.51539492 14.23560806 402.70679763 10.39038277 402.90216255 C0.98856614 403.37846766 -8.41334047 403.80432437 -17.8203125 404.16796875 C-19.47615797 404.23870165 -19.47615797 404.23870165 -21.16545486 404.31086349 C-24.10785517 404.42755419 -27.04850848 404.50841551 -29.99243164 404.57397461 C-31.23157774 404.62837251 -31.23157774 404.62837251 -32.4957571 404.68386936 C-36.58343411 404.7283311 -39.06919017 404.38368898 -42.32444763 401.79884338 C-44.8203125 399.16796875 -44.8203125 399.16796875 -45.58203125 396.66796875 C-45.45979912 392.55067594 -45.35171562 389.95591131 -43.0078125 386.48046875 C-40.2087869 384.44980312 -37.37811676 382.6204245 -34.4453125 380.79296875 C-22.9262472 373.57229292 -17.19942204 364.65294373 -14.03198242 351.38989258 C-11.68606659 340.88626478 -10.66818814 330.61302525 -10.68659973 319.85028076 C-10.68433417 318.86087219 -10.68206862 317.87146361 -10.67973441 316.85207295 C-10.67344398 313.56250265 -10.67422059 310.27297407 -10.67504883 306.98339844 C-10.67205409 304.61370796 -10.66865084 302.24401797 -10.66487122 299.87432861 C-10.65605534 293.45215821 -10.65369401 287.03000115 -10.65305543 280.60782528 C-10.65255971 276.58636048 -10.65026875 272.56489799 -10.64755821 268.54343414 C-10.63875725 255.21160158 -10.63413752 241.87977703 -10.63488869 228.54794154 C-10.63492864 227.83054856 -10.6349686 227.11315559 -10.63500977 226.37402344 C-10.63507109 225.2965972 -10.63507109 225.2965972 -10.63513365 224.19740477 C-10.63553911 212.58607439 -10.6259932 200.9747766 -10.6118714 189.36345562 C-10.59743884 177.40071923 -10.59060509 165.43799865 -10.59146518 153.47525334 C-10.59179497 146.77554748 -10.58894545 140.075883 -10.57828712 133.37618256 C-10.56851733 127.06255087 -10.56858705 120.74899053 -10.57580376 114.43535614 C-10.57683892 112.13540542 -10.57455139 109.83545005 -10.5684433 107.5355072 C-10.31100706 60.73748246 -10.31100706 60.73748246 -30.8203125 20.16796875 C-34.1658476 16.31715833 -34.41047944 13.58174514 -34.21875 8.58203125 C-33.8203125 6.16796875 -33.8203125 6.16796875 -31.9453125 3.10546875 C-23.44333652 -2.16575636 -9.75442521 0.00402084 0 0 Z M90.1796875 59.16796875 C90.15635721 73.36252917 90.1387741 87.55708662 90.12787533 101.75166225 C90.12264578 108.3420166 90.11554683 114.93235812 90.10424805 121.52270508 C90.09342172 127.87688893 90.08741121 134.2310604 90.08481026 140.58525276 C90.08295555 143.01546486 90.07933407 145.44567624 90.07395744 147.8758831 C90.06675039 151.26679856 90.06569642 154.65766216 90.06616211 158.04858398 C90.06256683 159.06421921 90.05897156 160.07985443 90.05526733 161.12626648 C90.056642 162.04478394 90.05801666 162.96330139 90.05943298 163.90965271 C90.05851119 164.7125344 90.0575894 165.51541609 90.05663967 166.34262753 C89.97993367 168.18753054 89.97993367 168.18753054 91.1796875 169.16796875 C107.35235489 170.52877571 122.9219717 166.74181645 136.03125 157.0625 C147.39020658 147.36792225 154.23223712 135.07192577 156.1796875 120.16796875 C157.29913634 104.79707512 152.95660808 90.5551554 142.8671875 78.79296875 C130.68031139 66.07711305 114.5622292 60.62123282 97.2578125 59.58984375 C96.57283691 59.54778809 95.88786133 59.50573242 95.18212891 59.46240234 C93.51487003 59.3605628 91.84730624 59.26373511 90.1796875 59.16796875 Z " fill="#1499E9" transform="translate(125.8203125,43.83203125)"/>
<path d="M0 0 C1.86286442 -0.00322657 3.7257286 -0.0065916 5.58859253 -0.01008606 C9.50389182 -0.01606347 13.41916913 -0.01792823 17.33447266 -0.01733398 C21.26095306 -0.01725393 25.18731378 -0.02399932 29.11376953 -0.0378418 C49.72076328 -0.1093135 70.28268259 0.02586416 90.8671875 1.06640625 C92.06514135 1.12602759 92.06514135 1.12602759 93.2872963 1.18685341 C141.81121058 3.66732561 199.63797497 7.97074705 235.1796875 45.16796875 C244.86100029 56.44345997 250.9241534 69.73891811 254.1796875 84.16796875 C254.40527344 85.16054687 254.63085938 86.153125 254.86328125 87.17578125 C259.71546496 113.87952332 257.0546051 143.99304242 242.1796875 167.16796875 C228.60156816 186.55855859 212.12303141 198.67094166 191.1796875 209.16796875 C193.98855357 212.03010642 196.80197103 214.72428569 199.9296875 217.23046875 C222.50700555 236.92196419 229.83325064 268.68899434 236.44921875 296.50390625 C242.42402231 323.49700628 242.42402231 323.49700628 259.1796875 344.16796875 C263.23396299 346.19510649 268.10088651 345.74561787 272.38671875 344.5546875 C277.05915775 342.64361785 280.71790186 340.03001207 284.6796875 336.91796875 C288.94875248 333.71318048 291.85761994 332.10857511 297.234375 332.62890625 C300.23879806 333.46145722 302.0672758 334.92353132 304.1796875 337.16796875 C309.40343937 347.61547248 303.33836687 365.11318226 299.9296875 375.41796875 C292.7828473 394.30604643 278.67709527 407.83349261 260.65625 416.3046875 C239.60149388 425.53436286 215.47866327 427.25684443 193.9296875 418.91796875 C188.13672666 416.3407551 183.14850863 413.0872699 178.1796875 409.16796875 C177.41914063 408.57242187 176.65859375 407.976875 175.875 407.36328125 C146.95663437 383.24796597 138.3830895 340.43170988 132.42578125 305.35546875 C126.47937761 264.04566833 126.47937761 264.04566833 104.1796875 230.16796875 C100.02438416 227.66678295 95.85674621 226.32000473 91.1796875 225.16796875 C91.2297998 226.24312744 91.27991211 227.31828613 91.33154297 228.42602539 C91.57597499 233.69402001 91.81614603 238.96220432 92.0546875 244.23046875 C92.09915009 245.21227112 92.14361267 246.19407349 92.18942261 247.20562744 C93.07978801 266.98953483 93.8075673 286.77820121 94.48193359 306.57055664 C94.9434266 320.24151092 94.9434266 320.24151092 95.6328125 333.90234375 C95.69758789 334.99514648 95.76236328 336.08794922 95.82910156 337.21386719 C97.29818215 349.5926103 104.73747574 360.35720948 114.1796875 368.16796875 C117.38404201 370.43427005 120.66178268 372.58489936 123.98803711 374.66772461 C130.19656138 378.60263732 130.19656138 378.60263732 132.1796875 382.16796875 C133.0134344 388.62950721 133.0134344 388.62950721 131.1953125 391.984375 C128.78862107 395.06701989 126.97343502 396.53570649 123.1796875 397.16796875 C121.28514215 397.3350038 119.38657316 397.45851042 117.48707581 397.55397034 C116.32552979 397.61424408 115.16398376 397.67451782 113.96723938 397.73661804 C112.69615829 397.79847794 111.42507721 397.86033783 110.11547852 397.92407227 C108.75979982 397.99285678 107.40413816 398.06197747 106.04849243 398.13140869 C102.36373612 398.31902764 98.67874332 398.50154006 94.99367261 398.68286633 C91.9036205 398.8353688 88.81369394 398.99033536 85.72376388 399.14528793 C78.41261876 399.51187422 71.10127589 399.87430965 63.78979492 400.23413086 C56.2974325 400.6029204 48.80542408 400.97834 41.31356484 401.35720307 C34.85140186 401.68376541 28.38904069 402.00618106 21.92651123 402.3254084 C18.08101678 402.51539492 14.23560806 402.70679763 10.39038277 402.90216255 C0.98856614 403.37846766 -8.41334047 403.80432437 -17.8203125 404.16796875 C-19.47615797 404.23870165 -19.47615797 404.23870165 -21.16545486 404.31086349 C-24.10785517 404.42755419 -27.04850848 404.50841551 -29.99243164 404.57397461 C-31.23157774 404.62837251 -31.23157774 404.62837251 -32.4957571 404.68386936 C-36.58343411 404.7283311 -39.06919017 404.38368898 -42.32444763 401.79884338 C-44.8203125 399.16796875 -44.8203125 399.16796875 -45.58203125 396.66796875 C-45.45979912 392.55067594 -45.35171562 389.95591131 -43.0078125 386.48046875 C-40.2087869 384.44980312 -37.37811676 382.6204245 -34.4453125 380.79296875 C-22.9262472 373.57229292 -17.19942204 364.65294373 -14.03198242 351.38989258 C-11.68606659 340.88626478 -10.66818814 330.61302525 -10.68659973 319.85028076 C-10.68433417 318.86087219 -10.68206862 317.87146361 -10.67973441 316.85207295 C-10.67344398 313.56250265 -10.67422059 310.27297407 -10.67504883 306.98339844 C-10.67205409 304.61370796 -10.66865084 302.24401797 -10.66487122 299.87432861 C-10.65605534 293.45215821 -10.65369401 287.03000115 -10.65305543 280.60782528 C-10.65255971 276.58636048 -10.65026875 272.56489799 -10.64755821 268.54343414 C-10.63875725 255.21160158 -10.63413752 241.87977703 -10.63488869 228.54794154 C-10.63492864 227.83054856 -10.6349686 227.11315559 -10.63500977 226.37402344 C-10.63507109 225.2965972 -10.63507109 225.2965972 -10.63513365 224.19740477 C-10.63553911 212.58607439 -10.6259932 200.9747766 -10.6118714 189.36345562 C-10.59743884 177.40071923 -10.59060509 165.43799865 -10.59146518 153.47525334 C-10.59179497 146.77554748 -10.58894545 140.075883 -10.57828712 133.37618256 C-10.56851733 127.06255087 -10.56858705 120.74899053 -10.57580376 114.43535614 C-10.57683892 112.13540542 -10.57455139 109.83545005 -10.5684433 107.5355072 C-10.31100706 60.73748246 -10.31100706 60.73748246 -30.8203125 20.16796875 C-34.1658476 16.31715833 -34.41047944 13.58174514 -34.21875 8.58203125 C-33.8203125 6.16796875 -33.8203125 6.16796875 -31.9453125 3.10546875 C-23.44333652 -2.16575636 -9.75442521 0.00402084 0 0 Z M-23.8203125 11.16796875 C-23.23733398 11.90345947 -23.23733398 11.90345947 -22.64257812 12.65380859 C-4.60416386 35.6343413 -0.65418249 63.81945338 -0.67987061 92.33599854 C-0.67689948 93.39260264 -0.67392836 94.44920675 -0.6708672 95.53782916 C-0.66226594 99.04248032 -0.66067931 102.54709698 -0.65917969 106.05175781 C-0.65454554 108.57925996 -0.64952009 111.10676142 -0.64413452 113.63426208 C-0.63106864 120.47531697 -0.62453964 127.31636066 -0.62012386 134.15742588 C-0.61734915 138.43782485 -0.61310976 142.71822161 -0.60861969 146.99861908 C-0.59643983 158.87666812 -0.58613645 170.7547154 -0.5827446 182.63277054 C-0.58252503 183.39093541 -0.58230547 184.14910028 -0.58207925 184.93023984 C-0.58186097 185.69008682 -0.58164269 186.4499338 -0.5814178 187.23280644 C-0.58097435 188.77222904 -0.58052779 190.31165163 -0.58007812 191.85107422 C-0.5798567 192.61466046 -0.57963527 193.3782467 -0.57940713 194.16497192 C-0.57546028 206.53359211 -0.55800393 218.90215336 -0.5347186 231.27075079 C-0.51094198 244.00419001 -0.49853997 256.73759971 -0.49737668 269.47106147 C-0.49646372 276.60651607 -0.49080709 283.74189371 -0.47255707 290.87732697 C-0.45544316 297.59153086 -0.45395027 304.30556449 -0.46269608 311.01979256 C-0.46346312 313.47384851 -0.45916799 315.92791249 -0.44923782 318.38194847 C-0.36345871 340.91437316 -1.48479753 364.74527787 -17.8203125 382.16796875 C-20.59498163 384.45231963 -23.41143812 386.52059399 -26.40234375 388.51171875 C-28.49056582 389.94210027 -30.07495635 391.3610118 -31.8203125 393.16796875 C-17.87583984 393.46818663 -3.96050313 392.5840228 9.9609375 391.890625 C12.66505047 391.7578982 15.36920885 391.6261065 18.07336426 391.49424744 C23.7217141 391.21828908 29.36993075 390.93973015 35.01806641 390.65942383 C41.5106017 390.33722911 48.00329936 390.01849509 54.49610376 389.70177275 C61.46322519 389.36188566 68.43022629 389.01958065 75.397192 388.6765182 C77.38087316 388.57898857 79.36457743 388.48192935 81.34828186 388.38487434 C100.27634305 387.47781374 100.27634305 387.47781374 119.1796875 386.16796875 C116.50927594 383.46156499 113.83349719 381.03130137 110.8046875 378.73046875 C110.01449219 378.11816406 109.22429687 377.50585938 108.41015625 376.875 C106.66081334 375.5361859 104.8924381 374.2222345 103.1171875 372.91796875 C92.92437381 364.25407711 86.06327846 350.17752791 84.89526367 336.94593811 C84.67588402 332.97681912 84.50949912 329.00745798 84.36328125 325.03515625 C84.30217519 323.53390994 84.24042861 322.03268958 84.17808533 320.53149414 C84.01424423 316.52827513 83.86141766 312.52470753 83.71117401 308.52095795 C83.61713977 306.04171044 83.51966973 303.5626226 83.42095947 301.08355713 C82.53670179 278.87260696 81.79552566 256.66427774 81.47045898 234.43701172 C81.45664688 233.57076172 81.44283478 232.70451172 81.42860413 231.81201172 C81.40445202 230.24485133 81.38411313 228.67762403 81.36888123 227.11035156 C81.30222979 222.69888595 80.88711911 218.51118732 80.1796875 214.16796875 C94.52875013 214.38628091 106.04779935 216.81119258 116.6796875 227.2421875 C121.11359401 232.43124371 124.20730662 238.07400118 127.1796875 244.16796875 C127.71207031 245.22371094 128.24445313 246.27945313 128.79296875 247.3671875 C137.04158943 265.03671345 139.85021703 284.47944881 143.05877686 303.54144287 C148.27983429 334.42076187 155.15685658 369.3851165 177.1796875 393.16796875 C177.7675 393.85761719 178.3553125 394.54726563 178.9609375 395.2578125 C186.4205079 403.49178745 197.38629593 409.57154652 208.1796875 412.16796875 C209.27990234 412.44060547 209.27990234 412.44060547 210.40234375 412.71875 C230.49790625 415.96908711 252.63982991 410.95530232 269.1796875 399.16796875 C283.69348627 387.99846397 291.30988186 372.07008963 294.1796875 354.16796875 C294.3744172 351.11155913 294.33552541 348.23278089 294.1796875 345.16796875 C293.51324219 345.626875 292.84679687 346.08578125 292.16015625 346.55859375 C281.67279741 353.54038789 272.03372231 357.97232395 259.1796875 356.16796875 C249.29654036 353.17683496 243.91157597 346.65096719 239.15283203 337.81201172 C231.79849111 323.47434094 227.92394587 308.39438987 224.2421875 292.79296875 C218.83980194 269.93662395 212.40129272 246.92052868 196.1796875 229.16796875 C195.27863281 228.12962891 195.27863281 228.12962891 194.359375 227.0703125 C185.89336988 217.87814376 175.1125859 212.43607786 163.1796875 209.16796875 C165.98335533 207.29885686 168.49947714 206.31406394 171.67480469 205.26635742 C197.96505594 196.59174556 223.4129696 180.82326608 236.3671875 155.54296875 C247.93712534 132.01957468 250.08365515 103.4243116 241.9296875 78.35546875 C233.80325792 55.80048052 217.97610591 40.6071046 196.62109375 30.48046875 C144.20679888 8.43546411 83.3456655 9.96031094 27.49780273 10.03759766 C23.27678215 10.04338327 19.05582397 10.03993936 14.83480549 10.03402519 C11.52749668 10.03040033 8.22020256 10.0315655 4.9128933 10.03415298 C3.35535868 10.03481234 1.79782266 10.03402921 0.24028969 10.03167343 C-7.82798707 10.02210927 -15.80881821 10.1041572 -23.8203125 11.16796875 Z " fill="#0062BF" transform="translate(125.8203125,43.83203125)"/>
<path d="M0 0 C12.83177105 8.94449923 21.44638236 20.08051455 26.65625 34.8515625 C27.20732422 36.40423828 27.20732422 36.40423828 27.76953125 37.98828125 C30.76081712 51.02079986 30.10846919 66.59688803 24.65625 78.8515625 C24.25535156 79.84800781 23.85445313 80.84445313 23.44140625 81.87109375 C16.82878807 96.80219393 3.9192408 108.17350317 -10.92578125 114.5625 C-25.56545758 120.08374936 -41.99792187 120.40920052 -57.34375 117.8515625 C-57.34375 75.6115625 -57.34375 33.3715625 -57.34375 -10.1484375 C-38.8174531 -13.85369688 -16.27652792 -9.56000887 0 0 Z M-47.34375 -1.1484375 C-47.36708029 13.04612292 -47.3846634 27.24068037 -47.39556217 41.435256 C-47.40079172 48.02561035 -47.40789067 54.61595187 -47.41918945 61.20629883 C-47.43001578 67.56048268 -47.43602629 73.91465415 -47.43862724 80.26884651 C-47.44048195 82.69905861 -47.44410343 85.12926999 -47.44948006 87.55947685 C-47.45668711 90.95039231 -47.45774108 94.34125591 -47.45727539 97.73217773 C-47.46087067 98.74781296 -47.46446594 99.76344818 -47.46817017 100.80986023 C-47.4667955 101.72837769 -47.46542084 102.64689514 -47.46400452 103.59324646 C-47.46492631 104.39612815 -47.4658481 105.19900984 -47.46679783 106.02622128 C-47.54350383 107.87112429 -47.54350383 107.87112429 -46.34375 108.8515625 C-30.17108261 110.21236946 -14.6014658 106.4254102 -1.4921875 96.74609375 C9.86676908 87.051516 16.70879962 74.75551952 18.65625 59.8515625 C19.77569884 44.48066887 15.43317058 30.23874915 5.34375 18.4765625 C-6.84312611 5.7607068 -22.9612083 0.30482657 -40.265625 -0.7265625 C-40.95060059 -0.76861816 -41.63557617 -0.81067383 -42.34130859 -0.85400391 C-44.00856747 -0.95584345 -45.67613126 -1.05267114 -47.34375 -1.1484375 Z " fill="#006FD4" transform="translate(263.34375,104.1484375)"/>
</svg>
